HIERARCHY
ROOT Hips
{
  OFFSET -32.5998 29.0326 120.673
  CHANNELS 6 Xposition Yposition Zposition Zrotation Xrotation Yrotation
  JOINT LeftUpLeg
  {
    OFFSET 8.64259 1.95398 -2.38835
    CHANNELS 3 Zrotation Xrotation Yrotation
    JOINT LeftLeg
    {
      OFFSET 43.7702 0 0
      CHANNELS 3 Zrotation Xrotation Yrotation
      JOINT LeftFoot
      {
        OFFSET 40.6238 0 0
        CHANNELS 3 Zrotation Xrotation Yrotation
        JOINT LeftToeBase
        {
          OFFSET 12.7242 0 0
          CHANNELS 3 Zrotation Xrotation Yrotation
          End Site
          {
            OFFSET 0 0 0
          }
        }
      }
    }
  }
  JOINT RightUpLeg
  {
    OFFSET -8.2249 1.95398 -2.59336
    CHANNELS 3 Zrotation Xrotation Yrotation
    JOINT RightLeg
    {
      OFFSET 43.5653 0 0
      CHANNELS 3 Zrotation Xrotation Yrotation
      JOINT RightFoot
      {
        OFFSET 40.6238 0 0
        CHANNELS 3 Zrotation Xrotation Yrotation
        JOINT RightToeBase
        {
          OFFSET 12.7242 0 0
          CHANNELS 3 Zrotation Xrotation Yrotation
          End Site
          {
            OFFSET 0 0 0
          }
        }
      }
    }
  }
  JOINT Spine
  {
    OFFSET 0.165834 0.87714 6.61349
    CHANNELS 3 Zrotation Xrotation Yrotation
    JOINT Spine1
    {
      OFFSET 7.38963 1.71661e-005 0
      CHANNELS 3 Zrotation Xrotation Yrotation
      JOINT Spine2
      {
        OFFSET 11.9445 1.14441e-005 0
        CHANNELS 3 Zrotation Xrotation Yrotation
        JOINT Spine3
        {
          OFFSET 14.7254 4.19617e-005 0
          CHANNELS 3 Zrotation Xrotation Yrotation
          JOINT Spine4
          {
            OFFSET 10.9679 0 0
            CHANNELS 3 Zrotation Xrotation Yrotation
            JOINT RightShoulder
            {
              OFFSET 2.46616 -1.6653 3.69651
              CHANNELS 3 Zrotation Xrotation Yrotation
              JOINT RightArm
              {
                OFFSET 13.0012 0 0
                CHANNELS 3 Zrotation Xrotation Yrotation
                JOINT RightForeArm
                {
                  OFFSET 28.7848 1.62311e-005 0
                  CHANNELS 3 Zrotation Xrotation Yrotation
                  JOINT RightHand
                  {
                    OFFSET 26.5688 1.62095e-005 0
                    CHANNELS 3 Zrotation Xrotation Yrotation
                    End Site
                    {
                      OFFSET 0 0 0
                    }
                  }
                }
              }
            }
            JOINT LeftShoulder
            {
              OFFSET 2.38034 -1.29275 -3.7523
              CHANNELS 3 Zrotation Xrotation Yrotation
              JOINT LeftArm
              {
                OFFSET 16.3182 6.07031e-005 0
                CHANNELS 3 Zrotation Xrotation Yrotation
                JOINT LeftForeArm
                {
                  OFFSET 27.0901 0 0
                  CHANNELS 3 Zrotation Xrotation Yrotation
                  JOINT LeftHand
                  {
                    OFFSET 24.5451 1.51738e-005 0
                    CHANNELS 3 Zrotation Xrotation Yrotation
                    End Site
                    {
                      OFFSET 0 0 0
                    }
                  }
                }
              }
            }
            JOINT Neck
            {
              OFFSET 5.0226 -0.0266342 0
              CHANNELS 3 Zrotation Xrotation Yrotation
              JOINT Head
              {
                OFFSET 6.69364 2.86102e-005 0
                CHANNELS 3 Zrotation Xrotation Yrotation
                End Site
                {
                  OFFSET 0 0 0
                }
              }
            }
          }
        }
      }
    }
  }
}
MOTION
Frames:	18
Frame Time:	0.0416667
-24.8755 90.7803 18.72 101.877 49.2106 83.5087 -170.137 28.4452 87.9139 -7.96959 20.9411 0.449525 57.4618 12.0451 -23.5781 154.453 -5.28165 -59.5785 174.483 29.9197 97.5349 -49.6381 -6.07775 3.81466 75.2999 -1.774 -2.03778 18.1967 2.90024 5.56913 -0.839176 7.85848 -90.183 11.1558 -1.75522 -0.193072 -0.514052 -1.76201 -0.115615 -23.0571 -1.61605 -0.711787 -3.0445 -1.61603 -0.711787 90.7242 -30.6602 -105.088 46.8115 -13.4915 4.41933 -9.89409 -12.485 -16.7156 -7.89654 -0.0222882 -5.12659 -88.6325 -44.6928 79.7001 -16.0143 19.5896 -31.9778 8.46568 -2.0422 -9.35191 -1.7746 -0.102072 -6.04917 4.83387 -2.13801 -9.31878 -5.37074 -0.435083 1.38464 
-17.1949 89.9514 11.3134 103.073 47.1478 84.1635 -170.462 25.8245 90.4949 -4.79415 21.1883 0.194877 52.9589 11.0212 -24.5251 155.618 -8.19903 -62.1995 173.966 24.6028 98.9818 -56.6289 -7.79887 4.86602 83.1175 -6.55379 -1.86709 18.4015 2.7321 5.82665 -0.457877 7.95592 -90.4405 10.958 -1.11545 -0.77124 -0.712615 -1.1483 -0.721395 -23.2484 -0.832114 -1.07082 -3.23574 -0.832083 -1.07081 90.6035 -29.5171 -105.738 43.5988 -15.7085 -0.244246 -10.4825 -13.1865 -18.6945 -10.0747 -0.0874844 -4.39996 -88.9605 -47.2348 79.7196 -18.6437 24.9629 -24.0293 5.75843 -3.75485 -0.531175 -1.93647 -0.0846166 -5.26762 5.17556 -1.28455 -5.95651 -5.3159 -0.176844 0.606591 
-10.9149 90.3288 4.99119 102.996 47.1851 82.6983 -172.004 24.4841 89.4056 -3.77867 10.5221 0.156857 54.4709 15.1592 -32.9968 160.808 -2.78061 -55.3099 173.532 17.888 97.5748 -57.4527 -8.73852 3.51597 89.2656 -8.97475 -1.53644 21.7494 1.74613 4.63311 -0.217087 8.00911 -90.2517 10.8544 -0.548449 -0.449352 -0.816472 -0.567695 -0.424781 -23.3515 -0.388048 -0.593406 -3.33889 -0.388053 -0.593414 90.6122 -29.2418 -105.824 39.5256 -13.8571 -6.52274 -12.4372 -12.8819 -22.1224 -12.2013 -0.223032 -3.16216 -88.7054 -47.798 80.2309 -25.1839 25.5008 -12.01 5.82586 -5.89347 -2.1476 -2.50763 -0.0906109 -4.29679 3.6475 -1.54312 -6.04679 -4.15777 -0.492419 0.939231 
-6.31878 92.0179 -0.153683 101.28 44.9364 81.6293 -173.623 24.7596 88.1328 -5.05123 -3.55158 0.0841046 58.8494 14.9569 -41.5153 168.229 10.1837 -42.8128 173.721 11.3199 95.175 -52.7608 -11.3791 0.808366 90.4453 -10.5575 -2.66519 23.0697 1.12782 4.87604 0.371108 8.05221 -89.9438 10.7685 0.765005 0.0409331 -0.902207 0.766062 0.00722106 -23.4388 0.717338 0.268962 -3.42614 0.717347 0.268966 90.9421 -27.5246 -105.805 37.3965 -12.4721 -11.5566 -15.5404 -12.3792 -28.6461 -12.115 -0.285183 -2.54072 -88.2467 -48.4224 81.0565 -28.6324 26.9442 -0.921503 6.34612 -5.30148 -11.0023 -3.27833 -0.0977783 -3.47814 4.30086 -2.13577 -3.99284 -4.1647 -1.39791 -0.545694 
-2.25452 93.559 -5.21758 100.628 42.7336 81.7402 -176.342 25.0618 88.672 -7.4649 1.07487 0.0830158 58.3066 5.91371 -32.7738 166.141 24.7748 -29.7696 173.654 2.5836 94.2641 -45.8557 -13.6437 -0.225365 88.923 -11.8916 -2.9029 25.4715 -0.0153372 5.48152 0.938256 8.17705 -89.9288 10.5209 1.90161 -0.028641 -1.1486 1.89849 -0.112341 -23.6944 1.82224 0.544388 -3.68177 1.82225 0.544384 90.6738 -25.6754 -107.102 34.7109 -11.6809 -15.7149 -17.7284 -11.7627 -33.812 -12.3105 -0.333927 -2.10781 -88.5022 -51.4252 81.2343 -28.3298 24.5824 6.00672 6.9289 -5.45902 -14.211 -3.71638 -0.108511 -2.623 4.52082 -2.76006 0.780944 -2.53527 -2.8824 -3.89272 
2.74979 94.7495 -11.1167 102.024 42.4591 80.8269 -177.203 23.1053 87.8262 -8.16788 2.19469 -0.98663 52.5218 -2.84843 -23.3286 122.031 30.8197 -4.69495 172.879 -7.37729 93.4425 -35.0265 -14.8833 -0.632638 86.6845 -13.7339 -4.36865 26.2334 -0.179477 4.94895 1.21806 8.33284 -90.0315 10.2126 2.41256 -0.267768 -1.45617 2.39846 -0.373752 -24.009 2.38144 0.470111 -3.99633 2.38145 0.470119 90.5865 -25.0443 -107.555 31.8081 -11.8 -18.8989 -19.3512 -13.6938 -35.0192 -11.7697 -0.25994 -2.70691 -88.5043 -54.0308 81.7035 -28.7016 19.5572 8.71424 7.53643 -5.97432 -11.212 -3.98968 -0.116468 -2.57122 3.93806 -3.04739 3.37925 -1.68862 -3.65615 -4.94524 
9.20343 95.0465 -18.3054 101.475 40.4372 80.6406 -177.143 19.8361 86.0777 -8.3044 0.0207471 -1.88148 52.4374 -4.01724 -14.4401 77.8139 18.9632 11.8553 170.396 -17.0967 88.7256 -26.7425 -17.9906 -1.06162 82.2356 -13.3812 -5.15999 30.7734 -1.95392 4.79153 1.54264 8.22095 -89.9496 10.4373 3.09619 -0.172665 -1.23 3.08561 -0.308899 -23.7936 3.00481 0.766718 -3.78095 3.00481 0.766713 90.1106 -25.4722 -108.384 31.5455 -13.0742 -19.4008 -17.9435 -14.7328 -31.4894 -11.1261 -0.218187 -3.01656 -88.0854 -55.2643 82.5105 -30.1671 17.4315 10.1357 6.63228 -10.0567 -9.596 -4.73142 -0.105456 -3.64516 3.55257 -3.10222 3.21265 -2.30145 -3.64601 -4.77462 
16.8337 96.2228 -26.5832 100.505 38.3304 80.2178 -176.794 15.7149 83.8062 -11.3687 3.09806 -2.12131 54.6494 -2.34893 -6.97441 30.0519 -8.87713 23.4476 168.512 -19.5522 84.7048 -28.9366 -20.6884 -3.03075 69.9099 -5.89713 -5.18696 40.9236 -6.48298 9.72131 1.61008 7.99352 -89.7128 10.8863 3.33848 0.257824 -0.780405 3.34659 0.11047 -23.3462 3.1065 1.2502 -3.33351 3.1065 1.2502 89.9901 -25.6892 -108.544 36.0792 -16.1149 -17.1804 -14.9071 -14.6763 -26.1014 -11.1241 -0.226328 -2.92765 -87.245 -55.6254 83.7563 -30.6521 14.2953 10.4128 7.61998 -9.33127 -10.8105 -6.32521 -0.111948 -3.73499 4.94838 -2.70881 2.06645 -4.12015 -3.01115 -4.80471 
23.9471 97.3086 -34.1558 102.26 38.685 77.1899 -175.887 14.4413 80.5359 -26.8555 5.67007 -2.87627 65.7328 1.67305 -4.49747 14.1913 -16.1645 15.8453 168.581 -11.3168 81.0711 -48.9231 -24.4389 -5.10174 56.658 3.32906 0.331106 30.7024 -2.81167 9.34783 1.22568 8.02067 -89.4456 10.8243 2.69654 0.852554 -0.844076 2.73146 0.732967 -23.3946 2.31563 1.62388 -3.382 2.31562 1.62388 89.8016 -26.2294 -108.706 40.4838 -18.8178 -12.6967 -13.1184 -14.9208 -23.516 -11.3714 -0.183036 -3.43554 -87.7621 -54.1396 82.7863 -28.1361 18.3731 4.24798 6.83394 -9.18817 -7.84478 -6.02464 -0.10009 -4.1489 4.99276 -2.46552 0.26933 -3.80917 -2.45666 -4.47459 
29.8369 98.4952 -39.841 103.43 37.9105 75.7401 -175.846 7.37156 79.5005 -27.6093 4.37514 -3.11322 71.2654 5.21286 -1.54711 11.7174 -12.274 7.76435 173.712 1.00456 82.4915 -64.6683 -24.5145 -6.9994 61.2325 0.0747927 -0.976889 25.5276 -0.299816 6.38761 0.894884 8.18399 -89.3055 10.4927 2.1013 1.19315 -1.177 2.15175 1.09949 -23.717 1.6456 1.76954 -3.70436 1.64558 1.76953 89.9101 -26.9995 -108.147 42.7464 -20.1207 -9.52345 -12.6777 -16.0371 -22.8709 -11.9382 -0.20195 -3.3251 -88.1872 -52.9821 81.9774 -19.9274 19.9787 -7.48402 6.68104 -9.2394 -5.31286 -2.39891 -0.0874154 -3.48927 4.73876 -1.78895 -0.885201 -3.62739 -1.58867 -4.79241 
35.7818 99.9226 -44.5666 104.471 40.3496 78.0331 -175.748 -0.411291 82.5994 -23.7481 7.14299 -1.3232 76.9457 9.01636 -1.79609 5.36322 -17.1244 9.10976 176.112 9.28127 88.135 -57.9541 -12.0634 -4.62706 69.1525 -4.98892 -2.42204 25.4855 -0.145056 5.93519 0.331736 8.19953 -89.6513 10.4723 0.820805 0.620136 -1.19855 0.847269 0.583415 -23.7338 0.596464 0.838151 -3.72111 0.596477 0.838144 90.2588 -27.465 -107.235 44.6962 -19.4422 -5.77028 -12.3548 -14.6903 -22.9231 -10.4418 -0.122955 -3.9793 -87.9679 -51.3271 82.009 -13.2171 16.4763 -17.405 7.22116 -9.43455 -7.79176 -0.435113 -0.075894 -3.50579 2.35829 -1.0829 -2.4805 -3.02235 -0.681644 -3.22104 
41.9341 100.213 -49.1175 104.158 43.3425 80.3442 -174.536 -6.21966 86.0557 -20.5768 12.0016 -0.325464 78.8467 10.7644 -0.20741 9.41967 -14.3459 8.71086 177.299 13.7378 91.9946 -36.9916 -3.1392 -2.28041 69.8533 -5.95962 -1.70621 25.2061 0.253211 4.89006 -0.0473737 8.16474 -89.9321 10.5439 -0.0631075 0.140556 -1.12707 -0.0568661 0.143196 -23.6622 -0.102444 0.115093 -3.64955 -0.102447 0.115088 90.6348 -27.9754 -106.263 45.6475 -16.6091 -1.1831 -12.9664 -13.1218 -24.5595 -10.8828 -0.144004 -3.79134 -87.6864 -47.6286 81.7652 -11.6535 12.2943 -26.3969 8.45778 -7.73763 -12.6758 0.181831 -0.0963297 -4.67228 2.03162 -1.45086 -5.15071 -3.03573 -0.624668 -1.73934 
48.5409 99.2486 -54.2057 103.155 45.1787 81.8193 -172.499 -11.4318 89.1373 -19.2755 14.9838 -0.430061 81.6508 12.5451 -0.0584929 13.8181 -11.6301 8.59423 177.896 15.2804 93.551 -14.1867 -5.00257 -0.33213 65.4097 -4.22809 -1.72 26.8829 -0.32551 4.49773 -0.232151 8.13172 -89.9929 10.6105 -0.459049 0.0556176 -1.06035 -0.456156 0.075752 -23.5962 -0.454546 -0.0849224 -3.58358 -0.454548 -0.0849279 90.3955 -29.8225 -106.039 45.1733 -14.3468 2.18713 -13.433 -13.4367 -24.922 -10.4189 -0.137883 -3.79861 -87.678 -45.2787 81.3367 -11.5268 7.7516 -33.0442 10.2137 -5.28245 -19.5358 -0.0480446 -0.116802 -5.64865 3.16675 -2.14033 -8.76791 -2.95876 -0.646184 -0.505725 
55.6691 97.1713 -60.1498 103.024 46.4367 81.6987 -170.298 -18.7788 91.7797 -16.5304 16.9494 -0.661451 87.5395 16.8219 -1.60731 12.5463 -13.9359 10.9357 178.061 16.5933 94.4644 -6.6947 -4.22823 0.533468 65.0645 -3.91596 -1.81887 28.3056 -0.707882 3.72733 -0.443461 8.14206 -89.9647 10.59 -0.867023 0.147758 -1.08064 -0.859662 0.185771 -23.618 -0.871317 -0.119667 -3.60535 -0.871351 -0.119674 90.3546 -30.8166 -105.755 44.8415 -14.6275 2.69233 -11.1992 -12.6089 -20.4433 -9.06977 -0.0857063 -4.31335 -88.0762 -46.0482 80.8581 -12.4472 3.96058 -35.7989 12.2766 -2.34784 -24.0419 -0.353052 -0.124056 -6.26174 4.46271 -2.44322 -9.8532 -3.0896 -0.651928 -1.05347 
63.9017 96.6111 -67.2915 103.417 48.4548 82.6121 -166.688 -25.242 97.0543 -13.7923 21.26 -0.0688346 80.453 14.2564 1.04404 24.6781 -7.73037 12.6803 177.903 20.1923 96.1009 -19.9771 -7.50375 0.66928 62.7155 0.194692 -1.32231 22.8028 1.09607 5.34115 -0.640113 8.01905 -90.1785 10.8349 -1.35693 -0.228325 -0.835308 -1.36566 -0.168387 -23.3752 -1.22556 -0.625642 -3.36252 -1.22558 -0.625656 90.916 -30.7969 -104.658 45.5624 -14.0439 3.94062 -10.6532 -13.3944 -18.5667 -8.64041 -0.0735999 -4.43275 -88.5178 -47.1859 80.3968 -13.1414 7.35472 -34.8161 11.362 -2.94294 -19.31 0.584676 -0.113541 -5.26196 4.65706 -2.49496 -9.23287 -4.14604 -0.782162 -1.82738 
72.3826 97.0478 -74.8899 104.646 48.0431 83.4739 -166.87 -21.7081 99.279 -29.4074 21.2529 2.41316 66.4868 4.48372 2.06067 36.5345 0.468901 8.36103 177.724 17.9508 98.5843 -29.6868 -8.13776 1.07375 63.5517 -0.245271 -1.52569 16.5988 3.152 6.70401 -0.588304 7.86333 -90.4185 11.1429 -1.36548 -0.700796 -0.527502 -1.39499 -0.64002 -23.0651 -1.09173 -1.07879 -3.05248 -1.09172 -1.07879 91.2962 -29.4997 -104.356 46.9763 -13.6279 4.23045 -10.3677 -13.6417 -17.5257 -9.09897 -0.044921 -4.85241 -88.5079 -47.5639 80.4866 -14.4602 17.6612 -29.7292 8.27478 -3.90001 -9.06184 -2.40804 -0.0909728 -6.03373 3.36908 -2.13164 -7.67895 -6.08185 -0.745122 -2.61817 
79.0848 98.2096 -80.9892 106.437 47.5176 83.5218 -169.501 -7.6371 100.367 -54.1696 22.0992 4.03413 55.9663 -3.40484 0.728411 9.23141 -9.7966 1.76284 177.771 11.1978 100.461 -31.2698 -7.85767 1.35093 68.5307 -4.07376 -2.37379 19.1891 2.33471 6.03898 -0.384634 7.95691 -90.6081 10.9529 -1.04712 -1.11068 -0.718018 -1.09499 -1.06353 -23.251 -0.664937 -1.374 -3.23838 -0.664953 -1.374 91.4802 -28.6339 -104.287 46.2047 -14.0822 1.34346 -11.0014 -12.3901 -19.5229 -9.90881 -0.0764392 -4.50019 -88.6943 -49.4129 80.5691 -16.9119 24.9225 -22.7014 5.57841 -5.71716 -1.23093 -3.99434 -0.0721479 -5.7332 2.71125 -2.06606 -5.53029 -5.55365 -1.07675 -3.22356 
84.1187 99.6666 -86.1764 106.365 48.0226 81.8719 -173.202 6.18252 96.0224 -62.2784 13.0103 3.72294 66.2317 3.06808 2.44794 10.9357 -11.0555 5.12962 177.38 3.99957 99.0675 -27.265 -8.71244 0.616173 70.8972 -5.81799 -2.86259 21.2788 1.56489 5.81784 0.0136286 8.04065 -90.4548 10.7912 -0.182628 -0.886563 -0.880046 -0.221474 -0.877667 -23.4128 0.0922428 -0.900457 -3.40019 0.0922281 -0.900464 91.1713 -28.178 -105.083 43.4528 -14.1721 -2.52273 -12.7422 -12.5504 -23.468 -12.4075 -0.18456 -3.57941 -88.828 -50.6949 80.6165 -22.0974 25.717 -12.3301 5.67288 -6.69213 -5.0605 -4.29683 -0.0833528 -4.83682 1.35897 -3.16162 -4.81935 -4.21831 -2.37347 -3.20024 
